<svg width="64" height="18" viewBox="0 0 64 18" fill="none" xmlns="http://www.w3.org/2000/svg">
<path d="M7.08 17.408C6.104 17.408 5.2 17.264 4.368 16.976C3.536 16.688 2.792 16.264 2.136 15.704C1.496 15.144 0.96 14.44 0.528 13.592L3.48 11.696C3.928 12.384 4.48 12.92 5.136 13.304C5.808 13.672 6.528 13.856 7.296 13.856C7.936 13.856 8.416 13.728 8.736 13.472C9.056 13.216 9.216 12.88 9.216 12.464C9.216 12.208 9.144 11.976 9 11.768C8.856 11.56 8.584 11.368 8.184 11.192C7.784 11 7.216 10.824 6.48 10.664C5.104 10.344 4.016 9.944 3.216 9.464C2.416 8.984 1.848 8.408 1.512 7.736C1.176 7.048 1.008 6.272 1.008 5.408C1.008 4.448 1.248 3.584 1.728 2.816C2.224 2.032 2.928 1.416 3.84 0.967999C4.768 0.503999 5.856 0.271999 7.104 0.271999C8.528 0.271999 9.736 0.551999 10.728 1.112C11.72 1.672 12.496 2.4 13.056 3.296L10.104 5.408C9.704 4.88 9.2 4.504 8.592 4.28C8 4.056 7.416 3.944 6.84 3.944C6.248 3.944 5.776 4.056 5.424 4.28C5.088 4.504 4.92 4.824 4.92 5.24C4.92 5.624 5.096 5.944 5.448 6.2C5.816 6.44 6.528 6.68 7.584 6.92C8.928 7.24 10.016 7.632 10.848 8.096C11.68 8.56 12.288 9.136 12.672 9.824C13.072 10.496 13.272 11.32 13.272 12.296C13.272 13.288 13.016 14.168 12.504 14.936C12.008 15.704 11.296 16.312 10.368 16.76C9.456 17.192 8.36 17.408 7.08 17.408ZM22.4944 17.312C20.7824 17.312 19.3024 16.952 18.0544 16.232C16.8064 15.512 15.8464 14.52 15.1744 13.256C14.5024 11.976 14.1664 10.504 14.1664 8.84C14.1664 7.592 14.3664 6.456 14.7664 5.432C15.1664 4.392 15.7344 3.496 16.4704 2.744C17.2064 1.976 18.0864 1.392 19.1104 0.991999C20.1344 0.575999 21.2624 0.368 22.4944 0.368C24.4144 0.368 26.0064 0.799999 27.2704 1.664C28.5344 2.512 29.4704 3.752 30.0784 5.384L26.5984 6.8C26.1344 5.904 25.5744 5.24 24.9184 4.808C24.2624 4.36 23.4544 4.136 22.4944 4.136C21.6464 4.136 20.8944 4.328 20.2384 4.712C19.5824 5.096 19.0624 5.64 18.6784 6.344C18.3104 7.048 18.1264 7.88 18.1264 8.84C18.1264 9.8 18.3104 10.632 18.6784 11.336C19.0624 12.04 19.5824 12.584 20.2384 12.968C20.8944 13.336 21.6464 13.52 22.4944 13.52C23.4544 13.52 24.2624 13.304 24.9184 12.872C25.5744 12.44 26.1344 11.776 26.5984 10.88L30.0784 12.296C29.4704 13.928 28.5344 15.176 27.2704 16.04C26.0064 16.888 24.4144 17.312 22.4944 17.312ZM34.2161 11.144V7.376H40.9121V11.144H34.2161ZM35.4401 17H31.5521V0.655999H42.0641V4.424H33.9761L35.4401 2.72V17ZM48.6579 17L43.1859 0.655999H47.1939L51.6579 14.336H49.9779L54.4899 0.655999H58.3779L52.9059 17H48.6579ZM63.6232 17H59.7352V0.655999H63.6232V17Z" fill="black"/>
</svg>
